<svg xmlns="http://www.w3.org/2000/svg" xmlns:xlink="http://www.w3.org/1999/xlink" width="500" zoomAndPan="magnify" viewBox="0 0 375 374.999991" height="500" preserveAspectRatio="xMidYMid meet" version="1.0"><defs><clipPath id="80be123ac1"><path d="M 1.875 1.875 L 373.125 1.875 L 373.125 373.125 L 1.875 373.125 Z M 1.875 1.875 " clip-rule="nonzero"/></clipPath><clipPath id="1ab01771e2"><path d="M 187.5 1.875 C 84.980469 1.875 1.875 84.980469 1.875 187.5 C 1.875 290.019531 84.980469 373.125 187.5 373.125 C 290.019531 373.125 373.125 290.019531 373.125 187.5 C 373.125 84.980469 290.019531 1.875 187.5 1.875 Z M 187.5 1.875 " clip-rule="nonzero"/></clipPath></defs><g clip-path="url(#80be123ac1)"><g clip-path="url(#1ab01771e2)"><path fill="#5cc131" d="M 1.875 1.875 L 373.125 1.875 L 373.125 373.125 L 1.875 373.125 Z M 1.875 1.875 " fill-opacity="1" fill-rule="nonzero"/></g></g><path fill="#ffffff" d="M 87.644531 196.859375 C 93.816406 209.597656 99.992188 222.335938 106.164062 235.074219 C 112.335938 247.816406 118.953125 260.359375 124.78125 273.195312 C 126.695312 277.457031 131.691406 280.003906 136.050781 280.59375 C 140.753906 281.230469 145.65625 279.90625 149.035156 276.332031 C 164.125 260.503906 178.433594 243.746094 192.59375 227.039062 C 206.804688 210.234375 221.257812 193.625 235.613281 176.964844 C 244.433594 166.773438 253.105469 156.4375 261.335938 145.753906 C 260.503906 146.832031 259.671875 147.910156 258.835938 148.988281 C 263.394531 143.058594 268.046875 137.179688 272.652344 131.300781 C 277.699219 124.929688 282.355469 118.21875 287.109375 111.605469 C 289.804688 107.878906 288.726562 101.460938 285.394531 98.425781 C 282.109375 95.4375 276.082031 93.769531 272.214844 96.710938 C 266.039062 101.414062 259.671875 106.019531 253.789062 111.113281 C 248.644531 115.621094 243.5 120.128906 238.40625 124.636719 C 227.96875 133.898438 218.21875 143.84375 208.714844 154.035156 C 189.949219 174.171875 171.671875 194.949219 154.769531 216.75 C 149.28125 223.804688 143.84375 230.863281 138.5 237.964844 C 133.652344 244.386719 129.144531 250.902344 124.78125 257.664062 C 133.652344 257.664062 142.566406 257.664062 151.4375 257.664062 C 143.351562 246.101562 136.003906 233.949219 128.261719 222.191406 C 120.519531 210.285156 112.777344 198.476562 105.035156 186.667969 C 102.144531 182.257812 96.023438 180.003906 91.269531 183.042969 C 86.417969 186.226562 85.195312 191.761719 87.644531 196.859375 Z M 87.644531 196.859375 " fill-opacity="1" fill-rule="nonzero"/></svg>